<?xml version="1.0" encoding="UTF-8"?>
<svg version="1.1" viewBox="0 0 1024 1024" width="1024" height="1024" xmlns="http://www.w3.org/2000/svg">
<path transform="translate(0)" d="m0 0h1024v1024h-1024z" fill="transparent"/>
<path transform="translate(619,112)" d="m0 0h18l15 4 11 6 10 9 7 8 6 12 4 16v12l-3 14-8 16-11 12-11 7-12 5-11 2h-16l-12-3-9-4h-2l-8 16-8 23-8 16-5 5-9 6-7 8-9 9-16 11-8 6h-2v2l-5 5-7 14-13 41-5 6-8 7-10 10-7 8 9-6 16-12 9-8 5-5 10-9 15-9 13-5 4-1h14l6 4 3 5 1 7-3 10-1 2-2 19-8 25-3 18 3 1 1 8 7 6 9 3 9 2 3 3 2 3 18-14 9-6 9-22 15-10 34-22 6-13 6-12 10-7 19-12 32-21 5-3 13-21 12-19 14-23 11-18 4-6 10-7 19-12 42-26 19-12 16-10h2l-3 10-14 42-15 47-11 33 3 10 11 30 9 31 6 28 4 27 2 23v41l-3 28-5 28-7 27-11 33-3 6-5-2-23-16-20-13-3-2-4 1-19 13-18 13-34 24-18 13-17 12-18 13-29 13-31 13h-2l1-5 12-27 7-15-9 6-17 11-11 7h-3l12-29 5-11-1-1-28 14-36 16-36 15-32 13-10 4-2-1 11-11 3-4h2l2-4h2l2-4 13-13 7-8 6-7-21 7-46 17-45 16-37 13-5 1 9-19 3-6-39 5-56 8-15 2 5-5 22-18 10-8h-2l-48 17-4 1 5-12 14-29 3-8-45 14-68 20-44 11-23 5-3-1 5-10 38-13 78-25 52-17 24-7 20 15 15 10 15 9 16 8 12 5 6-1 11-10 11-9 14-12 14-11 12-10 14-11 13-11 9-7 14-11 4-3h2l3-9 17-36 10-7 27-15 3-2-12-4-6-4h-9l-10-4-4-4v-9l8-16 2-6 4-1v-20l-1-7v-12h-2v2h-2l-2 4-12 14-7 8-10 9-6 5-7 16-8 26-7 4-17 28-4 6-10 7-9 7-10 10-7 8-7 7-12 16-8 15-1 4 2 1-1 5-5 8-1 5v9l2 9v9l-4 3h-7l-7-5-7-10-3-9-3-12-5-7-1-9 4-4 10-4 5-1 2-5h5l3-9 7-17 10-22 7-9 8-7 16-10 4-6 2-7h-3l1-8 9-33h6l-6-5-3-7-1-11 3-16v-3l-4 8-2 9-2-1v-14l-5 3-14 13-8 7-14 12-5 6-4 5-7 3-13 12-8 7-14 12-13 11-10 9-5 4h-2l-2 4-11 9-11 10-11 9-11 10-11 9-10 9-11 9-15 13-10 8-10 9-11 9-10 7-14 6-3-1 11-11 8-7 42-36 11-9 42-36 15-13 10-9 11-9 13-12 14-11 14-13 11-9 5-6-4-2-4-4-2 4-10 9-16 15-10 10-8 7-20 20 2-5 7-10 10-14 5-6h2l2-4 24-24h2v-2l11-9 3-11 2-9 4-3 3-1 11-27 10-25 5-5 10-7 7-11 10-13-3-1 11-13 7-6 13-5 15-5 4-6v-6l-4 4-5-2-5-5h-3l-7 6-8 3h-5l5-4 10-9 2-3v-11l2-9 6-9 10-6 12-3 12 2 8 6 1 2v6l4 2 5 3v9l4 8-2 4-13 7v10l8-7 9-4 9-1 4-1 6-7 11-7 11-6 9-14 10-11 9-12 1-2-1-28-6-13-3-13v-18l4-15 7-12 10-11 11-7 12-5z" fill="#052336"/>
<path transform="translate(531,117)" d="m0 0h29l-1 4-6 7-8 14-1 3-29 1-33 4-27 6-26 8-25 10-27 13-17 10-19 13-13 10-13 11-13 12-8 8-7 8-11 13-15 20-11 17-12 21-11 23-9 23-9 31-6 31-3 28v42l3 28 5 28v4l-8 6-11 10-2 3-5-14-6-29-3-23-1-12v-45l3-29 4-22 8-32 10-29 12-27 11-21 13-21 13-18 11-14 12-14 27-27 11-9 14-11 10-7 15-10 17-10 17-9 22-10 27-10 25-7 32-6 25-3z" fill="#052336"/>
<path transform="translate(871,223)" d="m0 0 2 1-4 5h-2v2l-6 5-7 8-29 29-10 22-8 20-17 44-7 8-11 9-14 12-6 5-1-3 9-25-12 8-18 13-13 9-8 6 17 12 1 2-13 9-20 14-17 12-18 13-9 7 18 3v2l-18 13-14 10-16 11-3 2 2-10 2-9-4 2-8 7-14 14-7 5 2-4 10-15h2v-3l-9 8-17 13-16 12-13 9-11 30-4 8-19 13-16 12-17 12-13 9-33 22-21 13-10 7-2-1 7-7 11-9 10-9 14-11 13-11 13-10 14-11 15-12 14-10 11-26 8-16 8-6 22-14 12-8 16-11 17-12 11-8 5-4 7-18 10-8 19-12 22-15 9-21 8-7 19-12 40-27 5-5 9-16 12-19 17-28 11-18 11-8 23-15 11-7z" fill="#F5F8F9"/>
<path transform="translate(668,733)" d="m0 0h40l12 4 8 6 6 7 4 10 1 4v73l-4 12-7 9-9 6-13 4h-37l-3-2v-131z" fill="#052336"/>
<path transform="translate(192,717)" d="m0 0h26l3 6 16 76 11 52 2 9-1 5-3 3h-20l-3-4-4-18v-5h-27l-2 13-3 12-3 2h-20l-3-4 2-13 14-67 12-58z" fill="#052336"/>
<path transform="translate(782,733)" d="m0 0h16l12 5 8 8 5 10 2 7v7l-16 6-9 1-2-14-2-5-10-1-5 4-2 9v63l2 7 4 4 6 1 5-3 2-5 1-21-9-1-2-3v-12l3-3h31l3 4v49l-1 16-3 2h-6l-4-4-1-2-4 2-9 4-5 1h-9l-11-3-8-6-6-7-5-12-1-8v-65l3-12 4-8 7-8 12-6z" fill="#052336"/>
<path transform="translate(591,733)" d="m0 0h59l2 2v21l-3 2h-33v31h29l2 1v20l-1 1h-30v32h34l2 2v21l-3 2h-57l-3-3v-130z" fill="#052336"/>
<path transform="translate(842,733)" d="m0 0h57l2 2v20l-4 3h-31v31h29l2 2v18l-1 2h-30v32h32l3 2v20l-3 3h-55l-3-2v-131z" fill="#052336"/>
<path transform="translate(476,733)" d="m0 0h58l1 1v22l-3 2h-32v31h28l3 3v10l-1 8-1 1h-29v32h33l2 1v22l-3 2h-55l-3-3v-130z" fill="#052336"/>
<path transform="translate(384,733)" d="m0 0h22l4 16 12 64 13-63 4-16 1-1h21l2 2-1 9-11 46-14 60-4 15-3 3h-17l-3-5-16-71-12-53 1-4z" fill="#052336"/>
<path transform="translate(295,732)" d="m0 0 12 2 8 4 7 6 6 11 3 9v5l-5 3-15 4h-5l-3-14-4-4-2-1h-6l-5 5-1 3v72l2 6 9 2 5-2 3-5 2-12h11l11 3 3 3-1 9-7 14-7 7-12 6-6 1h-9l-11-3-9-6-7-10-3-8-1-7v-70l4-13 4-6 5-6 12-6z" fill="#052336"/>
<path transform="translate(816,614)" d="m0 0 5 2 22 15 18 12 20 14 16 10 17 12 30 20-3 1-33-8-45-9-17-3 8-16 6-10-1-1-26 16-24 16h-2v2l-2-1 9-19 9-16-4 2-15 11-12 8-4 2 3-10 10-20 1-3-14 9-10 7-19 13-17 11-17 10-14 5-4-1 11-10 18-13 17-13 18-13 14-10 18-13z" fill="#052336"/>
<path transform="translate(346,733)" d="m0 0h23l2 2v130l-3 3h-21l-3-4v-128z" fill="#052336"/>
<path transform="translate(788,395)" d="m0 0 2 1-14 19-14 18-5 7h4l-3 10-16 39-5 11-1-3 4-15v-3l-17 14-14 11-18 14-7 4 2-5 8-15 31-62 17-12 18-13 16-11z" fill="#F5F7F9"/>
<path transform="translate(634,520)" d="m0 0 1 2-10 18-12 22-12 23-7 14-10 7-14 9-3 3h-2l2-5 6-8 13-19v-2l-17 9-14 8-28 14-17 9-2-1 13-12 11-9 15-13 11-9 17-14 14-11 12-10 20-15 10-8z" fill="#F2F6F9"/>
<path transform="translate(716,168)" d="m0 0 6 2 15 8 17 11 19 14 11 9 13 12 5 5 1 2-18 11-3 3-4-1-12-11-10-8-18-13-26-16 3-20z" fill="#052336"/>
<path transform="translate(690,537)" d="m0 0h2l-2 5-16 42-17 44-2 3h-10v-10l3-13-14 9-21 13-18 11h-3l21-21 7-8 22-22 8-7 5-5h2l-5-12 10-8 14-10 13-10z" fill="#569AC7"/>
<path transform="translate(510,886)" d="m0 0 9 2 6 4 6 7 3 9-1 9-5 10-5 4-6 3-4 1h-10l-10-5-5-5-4-8v-12l5-10 7-6 6-2z" fill="#052336"/>
<path transform="translate(692,758)" d="m0 0h14l5 4 3 9v62l-2 7-4 4-15 1z" fill="transparent"/>
<path transform="translate(427,365)" d="m0 0h1l-1 31-1 6-9 3-3 4-1 10-12 11-11 9-7 7-5 4h-2l-1-9-2-4 1-7 9-15 9-11 6-9 5-9 15-13z" fill="transparent"/>
<path transform="translate(555,887)" d="m0 0h23l8 3 5 6 1 3v10l-4 7-4 1 8 13-1 4h-11l-6-9-2-5h-8v12l-1 2-7 1-4-3v-42z" fill="#052336"/>
<path transform="translate(855,660)" d="m0 0 1 2-9 17 47 9 44 10 7 1 4 4h-15l-86-4-27-1 2-4 8-8 6-7h2l2-4 10-10z" fill="#569AC7"/>
<path transform="translate(431,887)" d="m0 0h23l7 3 5 5 2 10-3 8-6 5-9 2h-9v12l-1 2-7 1-3-1-1-2v-43z" fill="#052336"/>
<path transform="translate(813,292)" d="m0 0 2 3-8 20-17 44-7 8-11 9-14 12-6 5-1-3 8-23v-3l3-1 5-9 9-8 7-9 11-17 11-16 7-10z" fill="#569AC7"/>
<path transform="translate(386,887)" d="m0 0h12l10 5v4l-4 5-7-2h-10l-1 4 12 3 8 4 4 5v9l-4 6-7 4-5 1h-7l-11-4-4-4 2-5 3-3 6 2 4 2h9l1-4-17-5-5-5-2-4 1-9 5-6z" fill="#052336"/>
<path transform="translate(678,887)" d="m0 0h11l8 4 3 4-5 6-7-2h-10v4l16 5 5 4 2 4v8l-4 6-7 4-4 1h-7l-9-3-6-4-1-2 5-7 10 4h9l1-4-16-5-6-5-1-3v-10l5-6z" fill="#052336"/>
<path transform="translate(763,258)" d="m0 0 6 1 1 1v6l-48 48-8 7-14 14-3 2-6-1-2-5 1-3 8-7 29-29 8-7 25-25z" fill="#052336"/>
<path transform="translate(690,537)" d="m0 0h2l-2 5-1 3-4 2-10 13-8 20-3 8-11 4-6 4-11 9-14 12-8 7h-2v2h-2l-2 7-14 9-2-1 21-21 7-8 22-22 8-7 5-5h2l-5-12 10-8 14-10 13-10z" fill="#EEF4F7"/>
<path transform="translate(513,162)" d="m0 0 6 1 2 3 2 71v9l-3 4h-5l-3-3-2-50v-32z" fill="#052336"/>
<path transform="translate(777,491)" d="m0 0v3l-15 30-4 9-8 6-13 11-9 6 2-5 15-22 2-3-9 6-19 10-2-1 10-10 8-7 13-11 16-12z" fill="#EFF4F7"/>
<path transform="translate(226,416)" d="m0 0 11 1 67 12 4 4-1 5-2 2-10-1-56-10-12-2-4-3 1-7z" fill="#052336"/>
<path transform="translate(610,887)" d="m0 0h36l3 3-1 7-2 1h-12v35l-1 1h-9l-2-3v-33h-12l-2-2v-7z" fill="#052336"/>
<path transform="translate(391,196)" d="m0 0 5 1 4 5 26 52-1 5-3 2-6-1-12-23-10-20-7-15 2-5z" fill="#052336"/>
<path transform="translate(732,228)" d="m0 0 5 1 2 2v5l-14 18-8 10-14 17-5 4-6-2-1-5 7-9 14-17 10-13 8-10z" fill="#052336"/>
<path transform="translate(453,171)" d="m0 0 7 1 3 12 7 36v7l-3 3h-5l-3-3-9-46v-7z" fill="#052336"/>
<path transform="translate(298,272)" d="m0 0 6 2 11 10 10 8 13 11 2 2v6l-3 2-7-1-11-10-14-11-11-10v-6z" fill="#052336"/>
<path transform="translate(264,318)" d="m0 0 7 1 22 13 15 9 3 3-1 5-2 2h-6l-24-14-15-9-2-2v-5z" fill="#052336"/>
<path transform="translate(339,228)" d="m0 0h6l11 13 13 16 6 9-2 5-7 1-8-9-9-11-12-15-1-6z" fill="#052336"/>
<path transform="translate(503,898)" d="m0 0h10l6 4 2 4v10l-6 7-2 1h-8l-6-4-3-5v-8l3-5z" fill="transparent"/>
<path transform="translate(658,246)" d="m0 0 4 1 1 5-8 16-9 16-4 7-2 2h-5l-3-4 2-7 18-33z" fill="#07273A"/>
<path transform="translate(661,476)" d="m0 0 3 1-4 4-14 10-23 16-6 4 2-10 2-9-2-2 10-10 8 4 13-4z" fill="#569AC7"/>
<path transform="translate(220,483)" d="m0 0h37l4 4-1 5-2 2h-39l-3-3v-5z" fill="#052336"/>
<path transform="translate(205,767)" d="m0 0h1l8 46v4h-17l1-13 6-34z" fill="transparent"/>
<path transform="translate(746,464)" d="m0 0 1 2-5 14h-3l-14 11-12 10-13 10-9 6 1-6 5-6h2v-2l11-9 11-10 9-7z" fill="#569AC7"/>
<path transform="translate(253,526)" d="m0 0h5l-2 5-4 6-20 4-10 1-3-2v-6l4-3z" fill="#052336"/>
<path transform="translate(241,367)" d="m0 0 9 2 18 7 2 2v5l-3 3-7-1-20-7-3-3 1-6z" fill="#052336"/>
<path transform="translate(756,900)" d="m0 0h7l5 4 1 9-5 6-2 1h-6l-4-2-3-6 1-7 4-4z" fill="#052336"/>
<path transform="translate(315,900)" d="m0 0h7l5 4 1 3v7l-5 5-2 1h-6l-6-5-1-7 3-5z" fill="#052336"/>
<path transform="translate(705,163)" d="m0 0 5 1 7 3-3 23-2 6-8-4 1-25z" fill="#5599C6"/>
<path transform="translate(560,117)" d="m0 0 9 1-2 5-6 9-7 13h-10l1-5 9-15 5-5z" fill="#569AC7"/>
<path transform="translate(206,568)" d="m0 0h3l2 9-11 9-9 7-3-1-1-5 3-5 13-12z" fill="#569AC7"/>
<path transform="translate(604,575)" d="m0 0 1 2-8 16-5 8-16 10-2-1 9-12 14-15z" fill="#569AC7"/>
<path transform="translate(594,574)" d="m0 0 2 1-7 9-5 1-26 14-12 7-10 5-3-1 5-4 18-10 10-6 27-15z" fill="#5498C5"/>
<path transform="translate(564,898)" d="m0 0h13l3 4-1 6-2 2h-13z" fill="transparent"/>
<path transform="translate(212,615)" d="m0 0h2l1 12-7 3-17 5-2-1 18-14z" fill="#569AC7"/>
<path transform="translate(444,897)" d="m0 0 9 1 2 2v7l-5 3h-7l-2-1v-11z" fill="transparent"/>
<path transform="translate(803,230)" d="m0 0 3 2v3l-18 11-3 2-4-1-1-2 10-7z" fill="#569AC7"/>
<path transform="translate(282,380)" d="m0 0h5l4 4v5l-3 3-4 1-5-3-1-1v-5z" fill="#052336"/>
<path transform="translate(485,201)" d="m0 0 6 1 2 2v6l-3 3h-6l-3-3 1-7z" fill="#052336"/>
<path transform="translate(315,390)" d="m0 0 5 1 2 2v7l-2 2h-7l-3-4 1-5z" fill="#052336"/>
<path transform="translate(404,279)" d="m0 0 6 2 1 7-3 3-4 1-4-2-1-7z" fill="#052336"/>
<path transform="translate(376,306)" d="m0 0h6l3 4-1 5-4 3-6-2-1-1v-6z" fill="#052336"/>
<path transform="translate(283,456)" d="m0 0 5 1 3 4-2 5-2 2-6-1-2-2v-6z" fill="#052336"/>
<path transform="translate(351,338)" d="m0 0h6l3 4-1 5-3 2-6-1-2-2v-5z" fill="#052336"/>
<path transform="translate(433,220)" d="m0 0 5 2 2 2v5l-4 3-5-1-2-1v-7z" fill="#052336"/>
<path transform="translate(271,482)" d="m0 0h5l3 3v5l-4 3-6-1-1-1v-6z" fill="#052336"/>
<path transform="translate(335,366)" d="m0 0h6l3 3v5l-4 3-5-1-2-2 1-7z" fill="#052336"/>
<path transform="translate(354,291)" d="m0 0 6 1 2 2v5l-3 3-7-1-1-6z" fill="#052336"/>
<path transform="translate(372,227)" d="m0 0 5 1 2 2v5l-3 3h-5l-2-2v-7z" fill="#052336"/>
<path transform="translate(617,252)" d="m0 0 5 1 2 2v5l-3 3-6-1-1-1v-6z" fill="#052336"/>
<path transform="translate(254,450)" d="m0 0h6l3 3-1 5-2 2-6-1-2-2 1-5z" fill="#052336"/>
<path transform="translate(235,448)" d="m0 0 6 1 2 4-3 5h-6l-2-3 1-5z" fill="#052336"/>
<path transform="translate(690,243)" d="m0 0 5 1 2 2v5l-5 3-4-2-1-5z" fill="#052336"/>
<path transform="translate(666,285)" d="m0 0 5 1 2 2-1 5-2 2-5-1-2-2 1-6z" fill="#052336"/>
<path transform="translate(323,256)" d="m0 0 5 2 1 5-2 3h-6l-2-2 1-6z" fill="#052336"/>
<path transform="translate(547,231)" d="m0 0h5l3 3-1 5-1 1h-7l-1-1v-6z" fill="#052336"/>
<path transform="translate(383,245)" d="m0 0h5l2 3-1 5-1 1-7-1-1-4z" fill="#052336"/>
<path transform="translate(681,260)" d="m0 0 5 2 1 4-4 4-5-3v-5z" fill="#052336"/>
<path transform="translate(550,210)" d="m0 0h6l2 2-1 5-1 1h-5l-2-2v-5z" fill="#052336"/>
<path transform="translate(671,308)" d="m0 0h5l2 5-4 4-5-2v-5z" fill="#052336"/>
<path transform="translate(732,527)" d="m0 0m-1 1m-1 1m-1 1m-2 1 2 1-5 6-5 4-2-1z" fill="#C2DAE9"/>
</svg>
